<?xml version="1.0" encoding="UTF-8" standalone="no"?>
<svg
   xmlns:dc="http://purl.org/dc/elements/1.1/"
   xmlns:cc="http://creativecommons.org/ns#"
   xmlns:rdf="http://www.w3.org/1999/02/22-rdf-syntax-ns#"
   xmlns:svg="http://www.w3.org/2000/svg"
   xmlns="http://www.w3.org/2000/svg"
   xmlns:sodipodi="http://sodipodi.sourceforge.net/DTD/sodipodi-0.dtd"
   xmlns:inkscape="http://www.inkscape.org/namespaces/inkscape"
   width="210mm"
   height="297mm"
   viewBox="0 0 210 297"
   version="1.1"
   id="svg8"
   inkscape:version="1.0 (4035a4f, 2020-05-01)"
   sodipodi:docname="SketchAppLogo.svg">
  <defs
     id="defs2" />
  <sodipodi:namedview
     id="base"
     pagecolor="#ffffff"
     bordercolor="#666666"
     borderopacity="1.0"
     inkscape:pageopacity="0.0"
     inkscape:pageshadow="2"
     inkscape:zoom="1.210977"
     inkscape:cx="424.84004"
     inkscape:cy="372.7304"
     inkscape:document-units="mm"
     inkscape:current-layer="layer1"
     inkscape:document-rotation="0"
     showgrid="false"
     inkscape:snap-bbox="true"
     inkscape:snap-bbox-edge-midpoints="false"
     inkscape:bbox-paths="false"
     inkscape:snap-global="true"
     inkscape:snap-page="true"
     inkscape:snap-intersection-paths="false"
     inkscape:snap-object-midpoints="true"
     inkscape:window-width="1252"
     inkscape:window-height="789"
     inkscape:window-x="360"
     inkscape:window-y="32"
     inkscape:window-maximized="0" />
  <metadata
     id="metadata5">
    <rdf:RDF>
      <cc:Work
         rdf:about="">
        <dc:format>image/svg+xml</dc:format>
        <dc:type
           rdf:resource="http://purl.org/dc/dcmitype/StillImage" />
        <dc:title />
      </cc:Work>
    </rdf:RDF>
  </metadata>
  <g
     inkscape:label="Layer 1"
     inkscape:groupmode="layer"
     id="layer1">
    <g
       id="g2907"
       transform="translate(0.43697499,-10.705887)">
      <g
         id="g2898">
        <text
           xml:space="preserve"
           style="font-style:normal;font-variant:normal;font-weight:normal;font-stretch:normal;font-size:12.7px;line-height:1.25;font-family:Quicksand;-inkscape-font-specification:'Quicksand, @wght=500';font-variant-ligatures:normal;font-variant-caps:normal;font-variant-numeric:normal;font-variant-east-asian:normal;font-variation-settings:'wght' 500;fill:#000000;fill-opacity:1;stroke:none;stroke-width:0.264583"
           x="99.958809"
           y="102.89878"
           id="text12"><tspan
             sodipodi:role="line"
             id="tspan10"
             x="99.958809"
             y="102.89878"
             style="font-style:normal;font-variant:normal;font-weight:normal;font-stretch:normal;font-size:12.7px;font-family:Quicksand;-inkscape-font-specification:'Quicksand, @wght=500';font-variant-ligatures:normal;font-variant-caps:normal;font-variant-numeric:normal;font-variant-east-asian:normal;font-variation-settings:'wght' 500;stroke-width:0.264583">SketchApp</tspan></text>
      </g>
      <g
         id="g2882">
        <a
           id="a20"
           transform="translate(0.1889881,-0.1889881)">
          <ellipse
             ry="11.150297"
             rx="11.244792"
             cy="99.21875"
             cx="87.218002"
             id="path16"
             style="fill:#f2f2f2;stroke-width:1" />
        </a>
        <path
           style="font-variation-settings:'wght' 500;mix-blend-mode:normal;fill:#bfd9d7;fill-opacity:1;stroke-width:1.28;stroke-miterlimit:4;stroke-dasharray:none"
           id="path87"
           d="m 83.341034,94.605774 c 0.768901,-0.374298 1.598883,-0.648184 2.41759,-0.930502 0.897062,-0.291719 1.812186,-0.56074 2.760144,-0.702517 0.121766,-0.0182 0.245017,-0.02819 0.367525,-0.04228 0.08528,5.3e-4 0.17133,-0.0085 0.255833,0.0013 0.03088,0.0036 0.107142,0.05414 0.08232,0.03798 -0.04976,-0.03241 -0.104763,-0.05844 -0.15762,-0.08702 -0.02185,-0.01183 -0.04221,-0.04175 -0.06647,-0.03416 -0.08234,0.02577 -0.144308,0.08556 -0.219808,0.123735 -0.12108,0.06122 -0.246343,0.116144 -0.369513,0.174215 -1.209738,0.522869 -2.459313,0.973651 -3.697678,1.443521 -0.962441,0.373116 -1.947651,0.709864 -2.876681,1.143609 -0.123676,0.05774 -0.241908,0.123666 -0.362862,0.185499 -0.06958,0.05341 -0.174465,0.08576 -0.208737,0.160237 -0.04395,0.09552 -0.09069,0.234754 -0.0067,0.307983 0.213353,0.186068 0.719797,0.0769 0.948532,0.04093 0.399877,-0.06287 0.767387,-0.141935 1.163872,-0.222004 1.235083,-0.261506 2.455284,-0.571987 3.67221,-0.88915 0.681214,-0.181825 1.35457,-0.386115 2.041403,-0.552353 0.430704,-0.104245 0.60842,-0.137848 1.040835,-0.228139 0.334924,-0.06155 0.54862,-0.104169 0.879958,-0.153154 0.108949,-0.01611 0.363862,-0.05446 0.498638,-0.04809 0.01026,5.3e-4 -0.01982,0.02342 -0.02489,0.01574 -0.06111,-0.09288 -0.104004,-0.193746 -0.156007,-0.290618 -0.759072,0.341595 -1.55932,0.609256 -2.353994,0.882475 -1.359122,0.482071 -2.747803,0.896594 -4.139985,1.301848 -1.165261,0.32934 -2.333863,0.650542 -3.469122,1.050957 -0.217129,0.08738 -0.538374,0.209764 -0.749989,0.319061 -0.07584,0.03917 -0.177323,0.06435 -0.215888,0.132678 -0.05365,0.09506 -0.12204,0.238873 -0.03694,0.315232 0.238226,0.213736 0.812644,0.05985 1.053574,0.02278 0.231602,-0.04434 0.463985,-0.08579 0.694805,-0.133025 0.653774,-0.133794 1.117541,-0.245776 1.774998,-0.393628 0.936849,-0.21068 1.873314,-0.42145 2.808107,-0.6388 1.29357,-0.296971 2.56737,-0.65179 3.855861,-0.963583 0.436539,-0.107524 0.879632,-0.194612 1.32668,-0.263149 0.237271,-0.03638 0.474507,-0.07445 0.715957,-0.06695 -0.06651,-0.02545 -0.13302,-0.05089 -0.199528,-0.07634 -0.01216,-0.06601 0.03374,-0.169077 -0.03654,-0.198025 -0.07241,-0.02983 -0.142228,0.06413 -0.214212,0.09472 -0.440642,0.187248 -0.891632,0.354375 -1.342008,0.523446 -1.411302,0.540369 -2.884486,0.944949 -4.359322,1.33514 -1.238385,0.309251 -2.477366,0.617937 -3.69556,0.982036 -0.242754,0.07975 -0.521604,0.164422 -0.756057,0.26588 -0.07985,0.03455 -0.161216,0.06928 -0.230459,0.117808 -0.05326,0.03732 -0.148374,0.07887 -0.131814,0.136091 0.125041,0.432094 0.280615,0.333327 0.643483,0.317003 1.476487,-0.204155 2.934387,-0.493803 4.389789,-0.786077 1.323848,-0.253553 2.633571,-0.556692 3.949435,-0.838113 0.458932,-0.09629 0.919983,-0.185079 1.385069,-0.25677 0.271818,-0.0419 0.518828,-0.08037 0.794162,-0.06569 -0.360692,-0.02146 0.422973,0.04994 -0.206983,-0.237339 -0.06472,-0.02952 -0.126132,0.06416 -0.190524,0.09421 -0.102292,0.04773 -0.2048,0.09523 -0.309419,0.1391 -0.376224,0.157744 -0.594323,0.231264 -0.992619,0.376555 -1.587403,0.53749 -3.221424,0.962329 -4.856124,1.378836 -1.247672,0.327245 -2.522429,0.575482 -3.756244,0.940762 -0.05335,0.0196 -0.509297,0.172595 -0.588322,0.246085 -0.220712,0.20525 -0.154799,0.35234 0.169822,0.49455 0.137519,0.0602 0.746483,-10e-4 0.850898,-0.008 0.185638,-0.0225 0.372069,-0.0406 0.556918,-0.0674 0.728498,-0.10581 1.448221,-0.25501 2.166303,-0.40238 3.164907,-0.649518 -1.554975,0.31719 1.541637,-0.316795 1.340005,-0.282912 2.681024,-0.562677 4.041592,-0.763091 0.290275,-0.03655 0.590651,-0.07719 0.883199,-0.1045 0.106256,-0.0099 0.33514,-0.03305 0.461169,-0.01529 0.01368,0.0019 -0.03084,0.0232 -0.03852,0.01333 -0.06045,-0.07764 -0.09741,-0.166973 -0.146119,-0.25046 -0.06105,0.03054 -0.120623,0.06336 -0.183147,0.09163 -0.276476,0.124979 -0.557576,0.233156 -0.844419,0.340336 -0.694395,0.259459 -1.400315,0.490775 -2.108818,0.720015 -1.106615,0.346585 -2.223207,0.672315 -3.351357,0.963955 -0.311763,0.0806 -1.267085,0.31256 -1.586494,0.39049 -0.706138,0.18025 -1.428776,0.32174 -2.11859,0.54719 -0.156104,0.051 -0.635439,0.20966 -0.772875,0.36314 -0.06484,0.0724 -0.07096,0.17212 -0.106419,0.25817 0.118776,0.0929 0.209539,0.22245 0.356325,0.27872 0.162782,0.0624 0.814108,0.007 0.951563,-0.008 0.757415,-0.0823 1.493504,-0.26053 2.229331,-0.42771 2.10867,-0.50638 4.182856,-1.11288 6.246369,-1.73955 0.796674,-0.24583 1.589914,-0.501825 2.398564,-0.718025 0.282152,-0.0754 0.74029,-0.18857 1.044906,-0.242201 0.09834,-0.0173 0.198695,-0.02487 0.298043,-0.03729 0.02114,0.007 0.04232,0.01405 0.06348,0.02109 -0.077,-0.07687 -0.127838,-0.181131 -0.230985,-0.230598 -0.04243,-0.02035 -0.08734,0.03681 -0.129368,0.05778 -0.114387,0.05707 -0.224355,0.120568 -0.339679,0.176236 -0.471024,0.227373 -0.626494,0.281283 -1.137667,0.491083 -1.503192,0.584815 -3.069171,1.031715 -4.640311,1.459245 -1.217386,0.31745 -2.450996,0.58447 -3.672308,0.89028 -0.301416,0.088 -0.436653,0.11938 -0.717499,0.22982 -0.09423,0.0371 -0.335292,0.13458 -0.409256,0.22131 -0.04571,0.0536 -0.117665,0.1219 -0.08957,0.18376 0.04951,0.10902 0.191199,0.167 0.286797,0.2505 0.10053,2.6e-4 0.201322,0.007 0.3016,7.9e-4 0.178703,-0.0109 0.683187,-0.0841 0.836021,-0.10862 0.665349,-0.10679 1.321101,-0.25097 1.978221,-0.38907 1.184363,-0.2508 2.362412,-0.5318 3.563494,-0.72038 0.634708,-0.0997 0.836554,-0.1105 1.44408,-0.16798 0.12493,0.002 0.24986,0.003 0.37479,0.005 -0.0019,0.0145 0.0071,0.0536 -0.0053,0.0436 -0.07251,-0.0582 -0.08892,-0.18895 -0.18766,-0.19854 -0.121621,-0.0118 -0.212587,0.10454 -0.323516,0.1489 -0.466593,0.18655 -0.913865,0.32021 -1.399428,0.47756 -1.820247,0.56271 -3.680001,1.02397 -5.512636,1.55487 -0.295632,0.0856 -0.589007,0.17691 -0.883512,0.26536 -0.229074,0.0798 -0.461808,0.15219 -0.687217,0.23928 -0.213333,0.0824 -1.124512,0.38566 -0.524848,0.74847 0.179928,0.10886 0.986109,-0.0591 1.111841,-0.0791 1.578255,-0.33784 3.125059,-0.77513 4.672715,-1.20248 1.345668,-0.38172 2.690262,-0.76622 4.036834,-1.14558 0.473745,-0.12152 0.945372,-0.25429 1.427283,-0.35122 0.08991,-0.0181 0.180508,-0.0343 0.271933,-0.0455 0.04964,-0.006 0.150424,0.0367 0.150252,-0.006 -1.76e-4,-0.0434 -0.10024,-0.0122 -0.150352,-0.0183 -0.03198,-0.0694 -0.01783,-0.17526 -0.09594,-0.20819 -0.06276,-0.0265 -0.119673,0.0622 -0.180613,0.0916 -0.109754,0.053 -0.219514,0.10613 -0.331412,0.15574 -0.51776,0.22958 -1.055435,0.42314 -1.589715,0.62203 -1.358139,0.49296 -2.753255,0.90916 -4.097858,1.42993 -0.248536,0.0963 -0.492817,0.20039 -0.739226,0.30059 -0.176877,0.0862 -0.361285,0.16185 -0.530631,0.2585 -0.221255,0.12626 -0.563897,0.33635 -0.06229,0.58579 0.152222,0.0757 0.351753,-0.0116 0.527344,-0.0217 0.490184,-0.0282 0.29499,-0.0945 0.548048,0.0242 -0.07315,-0.0111 -0.146309,-0.0223 -0.219463,-0.0334 0,0 0.453017,0.10216 0.453017,0.10216 v 0 c -0.03019,-0.15113 -0.06037,-0.30227 -0.09055,-0.4534 -0.413089,-0.0805 -0.243041,-0.0754 -0.72981,-0.0277 -0.09747,0.01 -0.220209,-0.02 -0.290913,0.0383 -0.07912,0.0653 -0.148147,0.19496 -0.08599,0.27253 0.155815,0.19447 0.42898,-1.19324 0.663348,-0.4214 0.240087,-0.10088 0.477492,-0.20658 0.720255,-0.30263 1.339475,-0.52995 2.742179,-0.92837 4.103858,-1.41232 0.548738,-0.19772 1.099769,-0.39091 1.634457,-0.61575 0.005,-0.002 0.6003,-0.25585 0.632454,-0.29968 0.08044,-0.10966 0.07097,-0.25183 0.106453,-0.37774 -0.07944,-0.0315 -0.152376,-0.0804 -0.238349,-0.0945 -0.07572,-0.0124 -0.474001,0.0751 -0.499101,0.0807 -0.485908,0.10974 -0.962241,0.24946 -1.442234,0.376 -1.344172,0.38362 -2.688765,0.76609 -4.031378,1.1537 -1.525488,0.42879 -3.052521,0.86493 -4.618048,1.17501 -0.179735,0.025 -0.359367,0.0506 -0.539214,0.075 -0.201881,0.0274 -0.388713,-0.0153 -0.320807,0.28181 0.01143,0.0501 0.06525,-0.0882 0.113477,-0.11811 0.312476,-0.1935 0.717513,-0.31855 1.060578,-0.44667 0.289865,-0.0916 0.578178,-0.18681 0.869593,-0.27468 1.828802,-0.55143 3.695721,-1.00461 5.529588,-1.54309 0.390166,-0.11754 1.068551,-0.31115 1.471388,-0.46735 0.151167,-0.0586 0.341897,-0.0853 0.43948,-0.20029 0.265881,-0.31338 0.197932,-0.49241 -0.144062,-0.52649 -0.139105,-0.0139 -0.279781,0.0112 -0.419671,0.0168 -0.593619,0.0685 -0.860031,0.0931 -1.475119,0.19369 -1.202853,0.19668 -2.387677,0.46676 -3.577772,0.71149 -0.950849,0.18961 -1.907301,0.40297 -2.885449,0.4527 0.07574,0.23743 0.112881,0.13949 -0.01132,0.2666 -0.02121,0.0217 0.03892,-0.0472 0.06603,-0.0634 0.260387,-0.15562 0.57964,-0.22794 0.871084,-0.32414 1.219016,-0.31975 2.452568,-0.59468 3.670534,-0.91742 1.587828,-0.43449 3.169553,-0.88933 4.695331,-1.46849 0.507058,-0.19989 0.709711,-0.27169 1.184686,-0.487025 0.128239,-0.0581 0.257811,-0.115 0.379095,-0.18322 0.100934,-0.0568 0.259826,-0.0897 0.285772,-0.190763 0.03284,-0.127932 -0.04814,-0.269817 -0.140806,-0.373984 -0.03942,-0.04431 -0.12998,-0.0024 -0.194969,-0.0035 -1.310376,0.22061 -2.543541,0.687177 -3.797795,1.065422 -2.046757,0.63553 -4.109628,1.2403 -6.214476,1.72011 -0.713288,0.15341 -1.425831,0.31578 -2.158625,0.38687 -0.150289,0.0146 -0.301584,0.022 -0.452782,0.0253 -0.09686,0.002 -0.20142,-0.0416 -0.290504,-0.009 -0.0517,0.019 -0.03771,0.0908 -0.05654,0.13625 -0.110886,0.0165 -0.242463,0.0486 0.101214,-0.12993 0.139752,-0.0726 0.290696,-0.12896 0.442276,-0.1813 0.678307,-0.23422 1.396454,-0.36995 2.093962,-0.55236 0.320334,-0.079 1.284599,-0.31593 1.595466,-0.39701 1.134147,-0.29579 2.256659,-0.62517 3.371951,-0.96917 0.718419,-0.226175 1.434247,-0.454565 2.141172,-0.7062 0.210884,-0.07507 0.682505,-0.243684 0.905566,-0.343863 0.09964,-0.04475 0.192814,-0.09934 0.289223,-0.149014 0.0087,-0.134313 0.07108,-0.273973 0.02642,-0.402933 -0.0184,-0.05308 -0.120017,-0.04453 -0.184004,-0.05212 -0.07318,-0.0087 -0.147922,-7.94e-4 -0.221588,0.004 -0.403815,0.02625 -0.801119,0.103587 -1.20144,0.151191 -1.366617,0.213074 -2.716283,0.493368 -4.063596,0.78192 -1.388897,0.287214 -2.776479,0.607399 -4.197932,0.751789 -0.137383,0.007 -0.274592,0.0174 -0.412156,0.021 -0.07546,0.002 -0.168473,-0.0456 -0.226437,-0.004 -0.05039,0.036 0.02012,0.11629 -0.0036,0.16874 -0.01426,0.0315 -0.130674,0.0759 -0.09832,0.0565 0.246087,-0.14739 0.137919,-0.0861 0.489033,-0.22465 1.221288,-0.376375 2.485857,-0.635615 3.723647,-0.968095 1.648432,-0.421603 3.297943,-0.845156 4.907073,-1.369116 0.362238,-0.126113 0.681762,-0.232373 1.033889,-0.372202 0.112847,-0.04481 0.224138,-0.09261 0.333774,-0.142947 0.278725,-0.127973 0.460975,-0.161086 0.372823,-0.532154 -0.01463,-0.06161 -0.133589,-0.05196 -0.200383,-0.07794 -0.313137,0.004 -0.580729,0.04113 -0.889352,0.09212 -0.471923,0.07796 -0.940957,0.167974 -1.406586,0.270103 -1.311277,0.288618 -2.615571,0.601379 -3.93633,0.857673 -1.430474,0.289216 -2.865307,0.576779 -4.324923,0.736449 -0.353894,0.02671 -0.192437,-0.04945 -0.20107,0.294582 -2.2e-4,0.0087 -0.03538,-0.0047 -0.02787,-0.01064 0.05022,-0.03947 0.108343,-0.07165 0.168164,-0.0996 0.206399,-0.09643 0.503105,-0.190913 0.715099,-0.263726 1.208235,-0.373531 2.439875,-0.685763 3.671182,-0.998165 1.487497,-0.398269 2.975794,-0.803021 4.407754,-1.334079 0.309446,-0.111887 0.704654,-0.253439 1.016567,-0.370996 0.120581,-0.04545 0.240698,-0.09182 0.360131,-0.139438 0.219501,-0.08752 0.498662,-0.152181 0.474124,-0.44935 -0.0067,-0.08179 -0.158297,-0.09207 -0.237449,-0.138105 -0.270706,0.01074 -0.532974,0.04971 -0.79922,0.09392 -0.457496,0.07597 -0.911982,0.166502 -1.358962,0.279852 -1.285618,0.316685 -2.552863,0.685297 -3.842465,0.990793 -0.932011,0.220792 -1.865171,0.435264 -2.80202,0.640538 -0.603949,0.132329 -1.155051,0.256328 -1.761942,0.370332 -0.225407,0.04234 -0.452556,0.07754 -0.678835,0.116316 -0.509965,0.06576 -0.405719,-0.0594 -0.546092,0.172188 -0.03737,0.06166 -0.140338,0.121074 -0.110501,0.18568 0.02364,0.05119 0.09302,-0.07691 0.146896,-0.106874 0.188963,-0.105079 0.509343,-0.23029 0.703605,-0.310872 1.122009,-0.40567 2.279968,-0.729189 3.433768,-1.061064 1.397931,-0.409244 2.795117,-0.821295 4.164351,-1.297757 0.523684,-0.17607 1.04884,-0.350009 1.566461,-0.538977 0.08402,-0.03067 0.598664,-0.225365 0.708426,-0.2724 0.08541,-0.0366 0.167112,-0.07922 0.250668,-0.118832 -0.0065,-0.133903 0.0359,-0.276429 -0.01964,-0.401709 -0.02053,-0.04629 -0.112671,-0.02606 -0.170427,-0.02697 -0.07486,-0.0011 -0.149264,0.01127 -0.223323,0.02074 -0.411521,0.05266 -0.815963,0.140375 -1.222347,0.214929 -0.361961,0.07655 -0.702987,0.146098 -1.062239,0.232659 -0.688097,0.165796 -1.362212,0.371536 -2.043365,0.556437 -1.205336,0.31931 -2.413727,0.633884 -3.641071,0.885833 -0.400525,0.07731 -0.727441,0.146238 -1.129678,0.202777 -0.479143,0.06735 -0.346994,-0.06951 -0.457694,0.149291 -0.02924,0.05776 -0.11892,0.114416 -0.09016,0.172347 0.02346,0.04721 0.07878,-0.07729 0.118166,-0.115927 0.108309,-0.05995 0.212896,-0.125132 0.324905,-0.179843 0.158387,-0.07736 0.32253,-0.145769 0.485403,-0.21595 0.774636,-0.333783 1.570118,-0.629277 2.361536,-0.93209 1.248376,-0.474533 2.509614,-0.925208 3.739181,-1.435185 0.128757,-0.05788 0.604015,-0.255323 0.725933,-0.36572 0.224297,-0.203097 0.289221,-0.338315 0.01757,-0.541319 -0.102303,-0.07645 -0.458814,-0.04055 -0.548142,-0.0376 -0.131621,0.01789 -0.264002,0.03211 -0.394871,0.05369 -0.968974,0.159848 -1.906835,0.434316 -2.827883,0.732449 -0.858757,0.292697 -1.728489,0.574143 -2.54672,0.944432 0,0 0.290591,0.332121 0.290591,0.332121 z" />
      </g>
    </g>
  </g>
</svg>
